<?xml version="1.0" encoding="UTF-8" standalone="no"?>
<svg version="1.1" xmlns="http://www.w3.org/2000/svg" xmlns:xlink="http://www.w3.org/1999/xlink" viewBox="0 0 31 19" width="31" height="19">
<g id="bul_view" transform="translate(-3.3465187e-5,-1033.3622)">
    <path fill="#7A828D" clip-rule="evenodd" fill-rule="evenodd" d="m 15.421548,1033.3622 c 7.09972,0 11.125273,4.8988 15.281427,9.2339 0.416921,0.4729 0.365685,0.9399 0.02813,1.323 -3.456932,3.9313 -8.322355,8.4431 -15.310562,8.4431 -7.2524236,0 -11.9309855,-4.5424 -15.19603299,-8.4994 -0.30440289,-0.3692 -0.29937974,-0.8678 0.0160741,-1.2617 3.61064021,-4.1831 8.08124371,-9.2389 15.18096391,-9.2389 z m 0,1.9745 c -5.9574559,0 -9.9408138,4.272 -13.1043937,7.914 2.9516029,3.4515 7.0705859,7.137 13.1043937,7.137 5.79772,0 10.026207,-3.6441 13.19481,-7.0946 -3.564427,-3.795 -7.238359,-7.9564 -13.19481,-7.9564 z" />
    <path fill="#7A828D" clip-rule="evenodd" fill-rule="evenodd" d="m 15.488858,1047.6026 c -2.658251,0 -4.820215,-2.1266 -4.820215,-4.7399 0,-2.6133 2.161964,-4.7409 4.820215,-4.7409 2.658251,0 4.82122,2.1266 4.82122,4.7409 0,2.6133 -2.162969,4.7399 -4.82122,4.7399 z m 0,-8.4935 c -2.103695,0 -3.815585,1.6843 -3.815585,3.7536 0,2.0693 1.71189,3.7526 3.815585,3.7526 2.1047,0 3.81659,-1.6833 3.81659,-3.7526 0,-2.0693 -1.712895,-3.7536 -3.81659,-3.7536 z" />
</g>
</svg>
