<?xml version="1.0" encoding="UTF-8" standalone="no"?>
<svg version="1.1" xmlns="http://www.w3.org/2000/svg" xmlns:xlink="http://www.w3.org/1999/xlink" viewBox="0 0 32 25" width="32" height="25">
    <path id="bul_prices" clip-rule="evenodd" fill-rule="evenodd" fill="#7A828D" d="m 28.243326,0 c -2.072487,0 -3.757705,1.7252329 -3.757705,3.8467802 0,1.1542426 0.511369,2.1807919 1.301937,2.8866241 l -4.584303,7.0183877 c -0.443317,-0.186928 -0.927664,-0.293155 -1.436036,-0.293155 -1.434033,0 -2.667919,0.830437 -3.305381,2.033708 L 13.848956,13.89275 c 0.166121,-0.431055 0.265193,-0.896831 0.265193,-1.387131 0,-2.115421 -1.689216,-3.8345273 -3.766713,-3.8345273 -2.0784984,0 -3.7707103,1.7201193 -3.7707103,3.8345273 0,1.14913 0.5093649,2.169563 1.2989315,2.87334 L 5.9262581,18.031663 C 5.31182,17.580184 4.5642749,17.308475 3.7516937,17.308475 1.6832045,17.308475 0,19.033708 0,21.15322 0,23.274767 1.6832143,25 3.7516937,25 c 2.0684893,0 3.7526957,-1.725233 3.7526957,-3.84678 0,-0.93871 -0.3432437,-1.787536 -0.890642,-2.455569 l 2.0434709,-2.78141 c 0.5103668,0.263538 1.0787757,0.425942 1.6892157,0.425942 1.2569,0 2.365704,-0.636361 3.050198,-1.602653 l 2.714949,1.661898 c -0.06905,0.291109 -0.116085,0.591423 -0.116085,0.902966 0,2.119512 1.69121,3.843723 3.770711,3.843723 2.0795,0 3.769708,-1.724211 3.769708,-3.843723 0,-1.255366 -0.602434,-2.362616 -1.519097,-3.064348 l 4.550278,-6.9662914 c 0.507361,0.2604698 1.07077,0.4218611 1.675199,0.4218611 C 30.314782,7.6956157 32,5.9714055 32,3.8508708 32.001,1.7252329 30.315784,0 28.243297,0 z M 3.7517232,23.075597 c -1.0297409,0 -1.8683423,-0.863122 -1.8683423,-1.924412 0,-1.059245 0.8375995,-1.922368 1.8683423,-1.922368 1.0307428,0 1.8693442,0.863123 1.8693442,1.922368 0,1.06129 -0.8386014,1.924412 -1.8693442,1.924412 z m 6.5957428,-8.658839 c -1.0407525,0 -1.8863575,-0.85802 -1.8863575,-1.912151 0,-1.055154 0.8466069,-1.913174 1.8863575,-1.913174 1.038748,0 1.883351,0.85802 1.883351,1.913174 0,1.054141 -0.844603,1.912151 -1.883351,1.912151 z m 9.419772,4.8049 c -1.041744,0 -1.886357,-0.860064 -1.886357,-1.920322 0,-1.060267 0.845605,-1.920332 1.886357,-1.920332 1.042746,0 1.886357,0.860065 1.886357,1.920332 0,1.060268 -0.843611,1.920322 -1.886357,1.920322 z M 28.243336,5.7681349 c -1.034741,0 -1.874344,-0.8610874 -1.874344,-1.9213447 0,-1.0633353 0.839603,-1.9233901 1.874344,-1.9233901 1.034741,0 1.874344,0.8610875 1.874344,1.9233901 0,1.06129 -0.839603,1.9213447 -1.874344,1.9213447 z" />
</svg>
