<?xml version="1.0" encoding="UTF-8" standalone="no"?>
<svg version="1.1" xmlns="http://www.w3.org/2000/svg" xmlns:xlink="http://www.w3.org/1999/xlink" viewBox="0 0 32 32" width="32" height="32">
<g id="bul_zone" transform="scale(1.0005322,0.99990688)">
    <path fill="#7A828D" clip-rule="evenodd" fill-rule="evenodd" d="m 15.86401,21.36099 c 2.69495,0 7.31,-10.259 7.31,-13.908 C 23.17401,3.34299 19.89496,0 15.86401,0 11.833,0 8.55499,3.34299 8.55499,7.45299 c 0,2.90201 2.02802,7.15901 2.64996,8.395 1.841,3.658 3.40906,5.513 4.65906,5.513 z M 15.86401,2 c 2.92798,0 5.31,2.446 5.31,5.45299 0,3.46301 -3.91504,10.804 -5.31403,11.84201 C 14.46398,18.27699 10.55596,10.94699 10.55596,7.45299 10.55498,4.446 12.937,2 15.864,2 z" />
    <path fill="#7A828D" clip-rule="evenodd" fill-rule="evenodd" d="m 19.51898,7.129 c 0,-2.054 -1.64001,-3.726 -3.65497,-3.726 -2.01501,0 -3.65405,1.67099 -3.65405,3.726 0,2.05499 1.64001,3.728 3.65405,3.728 2.01495,-10e-4 3.65497,-1.673 3.65497,-3.728 z m -6.31,0 c 0,-1.50301 1.19,-2.726 2.65399,-2.726 1.46399,0 2.65503,1.22299 2.65503,2.726 0,1.504 -1.19104,2.728 -2.65503,2.728 -1.46399,0 -2.65399,-1.224 -2.65399,-2.728 z" />
    <path fill="#7A828D" clip-rule="evenodd" fill-rule="evenodd" d="M 31.59698,8.325 C 31.35498,8.13599 31.03997,8.068 30.742,8.14099 l -6.49805,1.603 C 23.708,9.87599 23.38,10.418 23.51299,10.954 c 0.133,0.537 0.67798,0.86501 1.20996,0.731 l 5.25903,-1.297 0,17.51999 -8.16003,1.91701 0,-12.368 c 0,-0.276 -0.224,-0.5 -0.5,-0.5 -0.276,0 -0.5,0.224 -0.5,0.5 l 0,12.23399 -10.04401,-3.35899 0,-8.875 c 0,-0.276 -0.224,-0.5 -0.5,-0.5 -0.276,0 -0.5,0.224 -0.5,0.5 l 0,8.842 -7.77795,3.211 0,-17.424 L 7.221,9.944 C 7.73199,9.73399 7.976,9.14999 7.76598,8.63899 7.557,8.127 6.96996,7.88499 6.46099,8.09298 l -5.841,2.39601 c -0.375,0.15399 -0.62,0.51999 -0.62,0.92499 l 0,19.589 c 0,0.334 0.16699,0.646 0.44397,0.83101 0.16699,0.112 0.35999,0.16899 0.55603,0.16899 0.12897,0 0.25897,-0.02499 0.38196,-0.076 L 10.255,28.26399 21.10498,31.892 c 0.17603,0.06 0.36603,0.069 0.54602,0.02499 l 9.56097,-2.246 c 0.45203,-0.106 0.771,-0.509 0.771,-0.974 l 0,-19.58499 C 31.98096,8.804 31.83899,8.51399 31.59698,8.325 z" />
</g>
</svg>
