<?xml version="1.0" encoding="UTF-8" standalone="no"?>
<svg version="1.1" xmlns="http://www.w3.org/2000/svg" xmlns:xlink="http://www.w3.org/1999/xlink" viewBox="0 0 26 20" width="26" height="20">
  <g id="bul_list_item" transform="translate(-2.67045,-1054.617)">
    <path fill="#7A828D" clip-rule="evenodd" fill-rule="evenodd" d="m 10.67045,1054.617 h 17 c 0.553,0 1,0.448 1,1 v 2 c 0,0.553 -0.447,1 -1,1 h -17 c -0.552,0 -1,-0.447 -1,-1 v -2 c 0,-0.551 0.447,-1 1,-1 z" />
    <path fill="#7A828D" clip-rule="evenodd" fill-rule="evenodd" d="m 10.67045,1062.617 h 13 c 0.552,0 1,0.448 1,1 v 2 c 0,0.553 -0.448,1 -1,1 h -13 c -0.552,0 -1,-0.447 -1,-1 v -2 c 0,-0.551 0.447,-1 1,-1 z" />
    <path fill="#7A828D" clip-rule="evenodd" fill-rule="evenodd" d="m 10.67045,1070.617 h 16 c 0.553,0 1,0.448 1,1 v 2 c 0,0.553 -0.447,1 -1,1 h -16 c -0.552,0 -1,-0.447 -1,-1 v -2 c 0,-0.551 0.447,-1 1,-1 z" />
    <path fill="#7A828D" clip-rule="evenodd" fill-rule="evenodd" d="m 3.67045,1054.617 h 2 c 0.552,0 1,0.447 1,1 v 2 c 0,0.553 -0.448,1 -1,1 h -2 c -0.552,0 -1,-0.447 -1,-1 v -2 c 0,-0.552 0.447,-1 1,-1 z" />
    <path fill="#7A828D" clip-rule="evenodd" fill-rule="evenodd" d="m 3.67045,1062.617 h 2 c 0.552,0 1,0.447 1,1 v 2 c 0,0.553 -0.448,1 -1,1 h -2 c -0.552,0 -1,-0.447 -1,-1 v -2 c 0,-0.552 0.447,-1 1,-1 z" />
    <path fill="#7A828D" clip-rule="evenodd" fill-rule="evenodd" d="m 3.67045,1070.617 h 2 c 0.552,0 1,0.448 1,1 v 2 c 0,0.553 -0.448,1 -1,1 h -2 c -0.552,0 -1,-0.447 -1,-1 v -2 c 0,-0.551 0.447,-1 1,-1 z" />
  </g>
</svg>
