<?xml version="1.0" encoding="UTF-8" standalone="no"?>
<svg version="1.1" xmlns="http://www.w3.org/2000/svg" xmlns:xlink="http://www.w3.org/1999/xlink" viewBox="0 0 27 32" width="27" height="32">
<g id="btn_copy" transform="matrix(1.000037,0,0,1.0018788,0,1.146788e-6)">
    <path fill="#7a828d" fill-rule="evenodd" clip-rule="evenodd" d="M 24.029,0 7.971,0 C 6.334,0 5,1.32401 5,2.951 l 0,2.019 -2.029,0 C 1.334,4.97 0,6.29401 0,7.921 l 0,21.06799 c 0,1.627 1.334,2.951 2.971,2.951 l 16.059,0 c 1.637,0 2.969,-1.32401 2.969,-2.951 l 0,-2.019 2.031,0 c 1.637,0 2.969,-1.32401 2.969,-2.951 l 0,-21.06799 C 26.998,1.324 25.666,0 24.029,0 z m -4.031,28.98801 c 0,0.52499 -0.434,0.95099 -0.969,0.95099 l -16.058,0 C 2.434,29.939 2,29.51301 2,28.98801 L 2,7.92 C 2,7.39501 2.434,6.96901 2.971,6.96901 l 16.059,0 c 0.535,0 0.969,0.42599 0.969,0.95099 l 0,21.06801 -10e-4,0 z m 5,-4.96901 c 0,0.52501 -0.434,0.951 -0.969,0.951 l -2.031,0 0,-17.049 C 21.998,6.294 20.666,4.97 19.029,4.97 L 7,4.97 7,2.951 C 7,2.42601 7.434,2 7.971,2 L 24.03,2 c 0.535,0 0.969,0.42601 0.969,0.951 l 0,21.06799 -10e-4,0 0,10e-6 z"/>
    <path fill="#7a828d" fill-rule="evenodd" clip-rule="evenodd" d="m 14,16.96901 -2,0 0,-2 c 0,-0.55301 -0.447,-1 -1,-1 -0.553,0 -1,0.44699 -1,1 l 0,2 -2,0 c -0.553,0 -1,0.448 -1,1 0,0.55199 0.447,1 1,1 l 2,0 0,2 c 0,0.55299 0.447,1 1,1 0.553,0 1,-0.44701 1,-1 l 0,-2 2,0 c 0.553,0 1,-0.44801 1,-1 0,-0.552 -0.447,-1 -1,-1 z"/>
</g>
</svg>
