<?xml version="1.0" encoding="UTF-8" standalone="no"?>
<svg version="1.1" xmlns="http://www.w3.org/2000/svg" xmlns:xlink="http://www.w3.org/1999/xlink" viewBox="0 0 84 77" width="84" height="77">
<g id="bul_kakao" transform="matrix(1.0037521,0,0,1.0008449,-73.270892,-378.40244)">
    <polygon fill="#4a3c38" points="102.32,413 107.433,413 104.876,405.153 " />
    <path fill="#4a3c38"  fill-rule="evenodd" clip-rule="evenodd" d="m 114.851,378.083 c -23.06,0 -41.851,14.786 -41.851,32.998 0,-0.001 0,-0.002 0,-0.002 0,0.044 -0.003,0.088 -0.003,0.132 0,0.178 0.001,0.354 0.004,0.531 0.002,0.086 0.005,0.171 0.007,0.257 0.003,0.091 0.004,0.182 0.008,0.272 0.003,0.081 0.008,0.162 0.012,0.243 0.004,0.095 0.008,0.189 0.014,0.284 0.004,0.072 0.01,0.145 0.015,0.217 0.007,0.103 0.013,0.206 0.021,0.309 0.006,0.074 0.013,0.149 0.02,0.225 0.009,0.1 0.017,0.199 0.027,0.298 0.008,0.079 0.017,0.157 0.025,0.235 0.01,0.095 0.02,0.19 0.031,0.285 0.01,0.09 0.023,0.18 0.035,0.27 0.01,0.083 0.021,0.166 0.032,0.248 0.013,0.095 0.028,0.188 0.042,0.282 0.011,0.078 0.022,0.156 0.035,0.234 0.016,0.098 0.033,0.195 0.049,0.292 0.013,0.074 0.024,0.147 0.037,0.221 0.017,0.097 0.036,0.192 0.054,0.289 0.014,0.074 0.027,0.148 0.042,0.223 0.02,0.097 0.041,0.193 0.061,0.29 0.015,0.072 0.029,0.146 0.045,0.217 0.022,0.101 0.046,0.201 0.069,0.301 0.016,0.068 0.031,0.137 0.047,0.205 0.025,0.104 0.051,0.207 0.077,0.311 0.016,0.063 0.032,0.128 0.048,0.192 0.028,0.106 0.057,0.213 0.086,0.319 0.017,0.061 0.032,0.12 0.049,0.18 0.03,0.109 0.063,0.217 0.094,0.325 0.017,0.058 0.033,0.115 0.05,0.172 0.034,0.113 0.069,0.226 0.104,0.338 0.017,0.052 0.032,0.104 0.049,0.156 0.037,0.114 0.075,0.228 0.113,0.342 0.017,0.05 0.033,0.1 0.05,0.149 0.039,0.114 0.079,0.228 0.12,0.341 0.018,0.049 0.034,0.099 0.052,0.147 0.042,0.114 0.084,0.229 0.128,0.342 0.018,0.048 0.035,0.096 0.053,0.143 0.045,0.118 0.092,0.235 0.139,0.354 0.017,0.042 0.033,0.086 0.05,0.128 0.048,0.119 0.098,0.237 0.148,0.355 0.018,0.041 0.034,0.082 0.051,0.123 0.051,0.12 0.104,0.24 0.157,0.359 0.017,0.038 0.034,0.077 0.051,0.116 0.055,0.121 0.11,0.242 0.167,0.363 0.017,0.036 0.033,0.072 0.05,0.108 0.059,0.124 0.119,0.248 0.179,0.371 0.016,0.032 0.031,0.064 0.046,0.097 0.062,0.125 0.124,0.248 0.188,0.372 0.016,0.031 0.031,0.063 0.047,0.094 0.065,0.127 0.132,0.253 0.2,0.379 0.015,0.027 0.028,0.055 0.043,0.082 0.068,0.126 0.138,0.252 0.208,0.378 0.015,0.026 0.029,0.054 0.044,0.079 0.072,0.129 0.146,0.257 0.219,0.385 0.014,0.023 0.026,0.046 0.04,0.069 0.075,0.13 0.152,0.258 0.229,0.387 0.013,0.021 0.025,0.042 0.039,0.063 0.079,0.131 0.16,0.261 0.241,0.391 0.012,0.019 0.023,0.037 0.035,0.056 0.083,0.131 0.167,0.262 0.251,0.392 0.011,0.017 0.022,0.034 0.033,0.052 0.086,0.131 0.173,0.262 0.262,0.393 0.01,0.015 0.02,0.03 0.031,0.046 0.09,0.132 0.181,0.264 0.273,0.395 0.009,0.014 0.018,0.026 0.027,0.04 0.095,0.134 0.19,0.268 0.287,0.4 0.007,0.01 0.014,0.02 0.021,0.029 0.099,0.136 0.199,0.27 0.299,0.403 0.006,0.008 0.012,0.016 0.017,0.023 0.103,0.136 0.206,0.271 0.311,0.404 0.004,0.006 0.009,0.012 0.014,0.018 0.107,0.138 0.215,0.273 0.325,0.409 0.002,0.003 0.004,0.006 0.006,0.009 0.11,0.136 0.221,0.271 0.333,0.406 0.002,0.003 0.004,0.005 0.006,0.008 2.995,3.59 6.881,6.683 11.385,9.089 C 89.215,447.378 82,453.818 82,453.818 v -0.02 c 0,0.102 -0.25,0.241 -0.283,0.408 -0.004,-0.014 -0.021,-0.027 -0.025,-0.042 -0.015,0.054 -0.018,0.099 -0.018,0.158 0,0.384 0.224,0.677 0.607,0.677 10e-4,0 0.002,0 0.004,0 0,0 0.001,0 0.001,0 0.01,0 0.022,0.012 0.033,0.011 0.004,0.001 0.007,0.008 0.011,0.008 2.517,0 17.655,-6.156 24.78,-11.438 2.578,0.354 5.068,0.419 7.653,0.419 0.007,0 0.014,0 0.021,0 0.007,0 0.015,0 0.022,0 23.116,0 41.877,-14.687 41.877,-32.958 0,-18.271 -18.716,-32.958 -41.832,-32.958 z M 93,419.6 l -0.173,0.187 c 0,1.267 -1.29,2.271 -2.702,2.271 -1.347,0 -2.416,-1.058 -2.511,-2.058 H 87.607 L 88,419.773 V 405 h -4.398 c -1.245,0 -2.258,-1.207 -2.258,-2.5 0,-1.293 1.013,-2.5 2.258,-2.5 h 12.852 c 1.266,0 2.258,1.186 2.258,2.5 0,1.314 -0.992,2.5 -2.258,2.5 H 93 v 14.6 z m 19.834,2.312 c -0.244,0.079 -0.497,0.119 -0.751,0.119 l 0,0 c -1.056,0 -1.985,-0.52 -2.312,-1.525 L 108.904,418 h -8.055 l -0.867,2.507 c -0.327,1.005 -1.256,1.603 -2.312,1.603 -0.254,0 -0.507,-0.079 -0.751,-0.158 -1.275,-0.415 -1.976,-1.809 -1.561,-3.084 l 5.807,-15.612 c 0.741,-2.026 1.354,-3.255 3.625,-3.255 h 0.174 c 2.265,0 2.906,1.277 3.625,3.246 l 5.805,15.602 c 0.416,1.281 -0.284,2.649 -1.56,3.063 z m 13.23,0.119 c -0.014,0 -0.026,-0.017 -0.04,-0.017 L 125.978,422 H 118 v 0.014 C 117,421.893 115.869,421 115.748,420 h -0.013 L 116,419.773 v -17.367 c 0,-1.341 1.159,-2.432 2.5,-2.432 1.341,0 2.5,1.091 2.5,2.432 V 417 h 5 v 0.344 c 1,0.046 2.333,1.079 2.333,2.343 0,1.292 -0.976,2.344 -2.269,2.344 z m 18.524,-0.57 c -1.084,0.836 -2.624,0.663 -3.431,-0.385 l -5.921,-7.738 -1.236,1.054 v 5.208 c 0,1.341 -1.111,2.432 -2.5,2.432 -1.389,0 -2.5,-1.091 -2.5,-2.432 v -17.193 c 0,-1.341 1.111,-2.432 2.5,-2.432 1.389,0 2.5,1.091 2.5,2.432 v 5.51 l 7.066,-7.019 c 0.91,-0.908 2.496,-0.88 3.437,0.063 0.94,0.943 1.004,2.449 0.093,3.357 l -5.847,5.726 6.334,8.001 c 0.807,1.047 0.59,2.58 -0.495,3.416 z" />
</g>
</svg>
