<?xml version="1.0" encoding="UTF-8" standalone="no"?>
<svg version="1.1" xmlns="http://www.w3.org/2000/svg" xmlns:xlink="http://www.w3.org/1999/xlink" viewBox="0 0 30 23" width="30" height="23">
<g id="bul_share" transform="translate(12.260422,-1043.8918)">
    <path fill="#7A828D" clip-rule="evenodd" fill-rule="evenodd" d="m 13.900596,1066.8918 h -23.938984 c -1.224407,0 -2.222034,-0.9901 -2.222034,-2.2066 v -15.4081 c 0,-1.2175 0.99661,-2.2077 2.222034,-2.2077 h 8.4305087 c 0.5623729,0 1.01694915,0.4527 1.01694915,1.0104 0,0.5577 -0.45457625,1.0104 -1.01694915,1.0104 h -8.4305087 c -0.103729,0 -0.188136,0.084 -0.188136,0.1869 v 15.4081 c 0,0.103 0.08441,0.1859 0.188136,0.1859 h 23.938984 c 0.103729,0 0.188136,-0.084 0.188136,-0.1859 v -6.5442 c 0,-0.5577 0.454576,-1.0103 1.016949,-1.0103 0.562373,0 1.016949,0.4526 1.016949,1.0103 v 6.5442 c 0,1.2165 -0.997627,2.2066 -2.222034,2.2066 z" />
    <path fill="#7A828D" clip-rule="evenodd" fill-rule="evenodd" d="m 8.3521211,1058.6341 9.3874579,-7.3716 -9.3874579,-7.3707 0.020339,5.0246 c -9.15152585,0.1627 -11.6461022,4.6477 -11.711187,13.8218 3.66610188,-7.9263 7.6240682,-8.5275 11.711187,-8.7952 l -0.020339,4.6911 0,0 z" />
</g>
</svg>
