<?xml version="1.0" encoding="UTF-8" standalone="no"?>
<svg version="1.1" xmlns="http://www.w3.org/2000/svg" xmlns:xlink="http://www.w3.org/1999/xlink" viewBox="0 0 32 32" width="32" height="32">
    <g id="bul_search" transform="matrix(0.99997981,0,0,1,-639.65158,-132.49)">
        <path fill="#7A828D" fill-rule="evenodd" clip-rule="evenodd" d="m 651.659,137.01 c -4.137,0 -7.502,3.36 -7.502,7.49 0,0.276 0.225,0.5 0.5,0.5 0.277,0 0.5,-0.224 0.5,-0.5 0,-3.579 2.916,-6.49 6.502,-6.49 0.275,0 0.5,-0.224 0.5,-0.5 0,-0.276 -0.224,-0.5 -0.5,-0.5 z" />
        <path fill="#7A828D" fill-rule="evenodd" clip-rule="evenodd" d="m 671.312,161.309 -7.283,-7.291 c -0.434,-0.433 -1.15,-0.457 -1.811,-0.126 l -1.371,-1.642 c -0.014,-0.013 -0.029,-0.017 -0.043,-0.029 3.992,-4.711 3.779,-11.79 -0.658,-16.228 -4.674,-4.675 -12.287,-4.67 -16.967,0.011 -4.682,4.681 -4.686,12.293 -0.012,16.968 4.441,4.441 11.525,4.65 16.236,0.65 0.012,0.013 0.016,0.03 0.029,0.042 l 1.641,1.371 c -0.33,0.661 -0.307,1.378 0.127,1.811 l 7.283,7.29 c 0.586,0.586 1.693,0.428 2.475,-0.354 0.781,-0.78 0.939,-1.888 0.354,-2.473 z m -12.59,-9.762 c -3.908,3.907 -10.238,3.913 -14.141,0.011 -3.9,-3.901 -3.896,-10.232 0.012,-14.139 3.906,-3.907 10.238,-3.913 14.139,-0.011 3.902,3.902 3.896,10.233 -0.01,14.139 z" />
    </g>
</svg>
