<?xml version="1.0" encoding="UTF-8" standalone="no"?>
<svg version="1.1" xmlns="http://www.w3.org/2000/svg" xmlns:xlink="http://www.w3.org/1999/xlink" viewBox="0 0 21 30" width="21" height="30">
<g id="bul_location" transform="translate(0.54092136,-1041.9248)">
    <path fill="#7A828D" clip-rule="evenodd" fill-rule="evenodd" d="m 9.9600774,1071.9248 c -3.6105298,0 -10.50099876,-13.7781 -10.50099876,-19.4222 0,-5.9315 4.61228956,-10.5778 10.50099876,-10.5778 5.8877106,0 10.4990016,4.6463 10.4990016,10.5778 -9.99e-4,5.6441 -6.88947,19.4222 -10.4990016,19.4222 z m 0,-28.0042 c -4.7680966,0 -8.5034719,3.7691 -8.5034719,8.582 0,5.7519 6.6907163,17.0233 8.4994769,17.4224 1.8107586,-0.447 8.5054696,-11.7503 8.5054696,-17.4224 -9.99e-4,-4.8119 -3.735375,-8.582 -8.5014746,-8.582 z" />
    <path fill="#7A828D" clip-rule="evenodd" fill-rule="evenodd" d="m 9.9710638,1058.3902 c -3.3049082,0 -5.9925806,-2.6823 -5.9925806,-5.9784 0,-3.2961 2.6876724,-5.9785 5.9925806,-5.9785 3.3049082,0 5.9925802,2.6824 5.9925802,5.9785 0,3.2961 -2.687672,5.9784 -5.9925802,5.9784 z m 0,-10.959 c -2.7535908,0 -4.9938172,2.2344 -4.9938172,4.9806 0,2.7462 2.2402264,4.9805 4.9938172,4.9805 2.7535912,0 4.9938172,-2.2343 4.9938172,-4.9805 0,-2.7462 -2.240226,-4.9806 -4.9938172,-4.9806 z" />
</g>
</svg>
