<?xml version="1.0" encoding="UTF-8" standalone="no"?>
<svg version="1.1" xmlns="http://www.w3.org/2000/svg" xmlns:xlink="http://www.w3.org/1999/xlink" viewBox="0 0 24 32" width="24" height="32">
<g transform="translate(2.48945,-1059.1612)">
    <path fill="#7A828D" clip-rule="evenodd" fill-rule="evenodd" d="m 2.18855,1081.3382 c -0.277,0 -0.5,0.224 -0.5,0.5 0,0.276 0.223,0.5 0.5,0.5 h 15 c 0.275,0 0.5,-0.224 0.5,-0.5 0,-0.276 -0.225,-0.5 -0.5,-0.5 h -15 z" />
    <path fill="#7A828D" clip-rule="evenodd" fill-rule="evenodd" d="m 17.18855,1084.3382 h -15 c -0.277,0 -0.5,0.224 -0.5,0.5 0,0.276 0.223,0.5 0.5,0.5 h 15 c 0.275,0 0.5,-0.224 0.5,-0.5 0,-0.276 -0.224,-0.5 -0.5,-0.5 z" />
    <path fill="#7A828D" clip-rule="evenodd" fill-rule="evenodd" d="m 15.98355,1059.8082 c -0.379,-0.413 -0.912,-0.647 -1.473,-0.647 h -14 c -1.654,0 -3,1.346 -3,3 v 26 c 0,1.654 1.346,3 3,3 h 18 c 1.654,0 3,-1.346 3,-3 v -21 c 0.001,-0.802 0.001,-1.332 -5.527,-7.353 z m -0.472,2.455 c 1,1.112 2.5,2.806 3.352,3.897 h -3.352 v -3.897 z m 4,25.897 c 0,0.552 -0.447,1 -1,1 h -18 c -0.553,0 -1,-0.448 -1,-1 v -26 c 0,-0.552 0.447,-1 1,-1 h 13 v 7 h 6 v 20 z" />
    <path fill="#7A828D" clip-rule="evenodd" fill-rule="evenodd" d="m 2.51155,1066.1602 h 8 c 0.553,0 1,-0.448 1,-1 0,-0.552 -0.447,-1 -1,-1 h -8 c -0.553,0 -1,0.448 -1,1 0,0.552 0.447,1 1,1 z" />
    <path fill="#7A828D" clip-rule="evenodd" fill-rule="evenodd" d="m 2.01155,1070.1602 h 9 c 0.275,0 0.5,-0.224 0.5,-0.5 0,-0.276 -0.225,-0.5 -0.5,-0.5 h -9 c -0.277,0 -0.5,0.224 -0.5,0.5 0,0.277 0.222,0.5 0.5,0.5 z" />
    <path fill="#7A828D" clip-rule="evenodd" fill-rule="evenodd" d="m 1.51155,1072.6602 c 0,0.276 0.223,0.5 0.5,0.5 h 15 c 0.275,0 0.5,-0.224 0.5,-0.5 0,-0.276 -0.225,-0.5 -0.5,-0.5 h -15 c -0.278,0 -0.5,0.224 -0.5,0.5 z" />
    <path fill="#7A828D" clip-rule="evenodd" fill-rule="evenodd" d="m 17.01155,1079.1602 c 0.275,0 0.5,-0.224 0.5,-0.5 0,-0.276 -0.225,-0.5 -0.5,-0.5 h -15 c -0.277,0 -0.5,0.224 -0.5,0.5 0,0.276 0.223,0.5 0.5,0.5 h 15 z" />
    <path fill="#7A828D" clip-rule="evenodd" fill-rule="evenodd" d="m 2.01155,1076.1602 h 14 c 0.275,0 0.5,-0.224 0.5,-0.5 0,-0.276 -0.225,-0.5 -0.5,-0.5 h -14 c -0.277,0 -0.5,0.224 -0.5,0.5 0,0.277 0.222,0.5 0.5,0.5 z" />
</g>
</svg>
