<?xml version="1.0" encoding="UTF-8" standalone="no"?>
<svg version="1.1" xmlns="http://www.w3.org/2000/svg" xmlns:xlink="http://www.w3.org/1999/xlink" viewBox="0 0 30 28" width="30" height="28">
<g id="bul_like" transform="translate(2.5285627,-1033.439)">
    <path fill="#7A828D" clip-rule="evenodd" fill-rule="evenodd" d="m 4.2412568,1047.9193 c -0.078189,0 -0.1563788,-0.019 -0.2296196,-0.058 -1.7765827,-0.9505 -2.8801425,-2.8122 -2.8801425,-4.8574 0,-3.027 2.380324,-5.488 5.3059945,-5.488 0.4740853,0 0.9550988,0.081 1.5123223,0.2522 0.2612913,0.081 0.4087625,0.3623 0.3295833,0.6297 -0.079179,0.2663 -0.3523473,0.4177 -0.6175976,0.336 -0.4612187,-0.1423 -0.8491966,-0.2089 -1.224308,-0.2089 -2.380324,0 -4.3162548,2.0099 -4.3162548,4.479 0,1.6689 0.9006631,3.1874 2.3506318,3.9634 0.2414965,0.1291 0.3355217,0.4349 0.2078453,0.681 -0.089077,0.1726 -0.2603015,0.2705 -0.4384547,0.2705 z" />
    <path fill="#7A828D" clip-rule="evenodd" fill-rule="evenodd" d="m 18.391565,1033.439 c -2.405067,0 -4.452839,1.4005 -5.920623,2.8383 -1.466794,-1.4378 -3.5145652,-2.8383 -5.9196327,-2.8383 -5.0070932,0 -9.079872,4.2116 -9.079872,9.3888 0,2.3702 0.8650325,4.6384 2.41892381,6.3669 l 11.92636289,11.9607 c 0.182113,0.1837 0.416681,0.2735 0.654218,0.2836 0.237538,-0.01 0.473096,-0.1 0.655208,-0.2836 l 11.926364,-11.9607 c 1.553891,-1.7285 2.418923,-3.9967 2.418923,-6.3669 0,-5.1772 -4.072779,-9.3888 -9.079872,-9.3888 z m 5.184257,14.4106 -11.10389,11.1274 -11.1038895,-11.1274 c -1.2361849,-1.3742 -1.91712582,-3.1582 -1.91712582,-5.0228 0,-4.0643 3.18498232,-7.3708 7.10039262,-7.3708 2.2486886,0 4.2390547,1.8727 5.2258257,2.9887 0.178153,0.2018 0.434496,0.2996 0.693807,0.3107 0.259312,-0.01 0.516645,-0.1089 0.694798,-0.3107 0.98677,-1.116 2.977137,-2.9887 5.225825,-2.9887 3.915411,0 7.100393,3.3065 7.100393,7.3708 0,1.8646 -0.679951,3.6486 -1.916136,5.0228 z" />
</g>
</svg>
