<?xml version="1.0" encoding="UTF-8" standalone="no"?>
<svg version="1.1" xmlns="http://www.w3.org/2000/svg" xmlns:xlink="http://www.w3.org/1999/xlink" viewBox="0 0 76 57" width="76" height="57">
  <g fill="#666666" clip-rule="evenodd" fill-rule="evenodd" transform="matrix(0.10803606,0,0,-0.10787798,-1.5830232,57.194702)">
    <path d="m 325,513 c -49,-14 -92,-27 -94,-29 -3,-2 5,-13 17,-24 35,-33 28,-65 -19,-97 -23,-16 -48,-32 -55,-37 -8,-7 -20,0 -39,22 -28,33 -100,61 -116,45 -6,-6 -1,-29 12,-57 27,-61 27,-104 -1,-161 -23,-47 -20,-65 8,-65 33,1 97,37 111,63 l 14,26 32,-24 c 17,-14 62,-38 98,-55 L 360,90 358,47 C 355,6 355,5 390,2 c 45,-3 98,29 113,68 6,17 19,30 28,30 9,0 44,14 78,31 71,35 117,92 108,132 -10,37 -76,106 -128,132 -35,18 -54,37 -69,65 -38,75 -75,85 -195,53 z m 156,-40 33,-38 -85,-7 c -46,-3 -96,-10 -111,-13 -24,-6 -28,-4 -28,13 0,11 -2,27 -5,34 -4,11 11,19 57,30 94,23 102,22 139,-19 z m 74,-88 C 600,366 665,309 686,267 700,241 699,239 657,196 556,95 373,87 241,178 c -30,20 -61,42 -69,47 -10,7 -17,5 -26,-10 -22,-37 -65,-75 -85,-75 -20,0 -21,1 -7,29 25,48 30,103 12,145 -9,21 -16,43 -16,47 0,17 58,-20 83,-52 l 25,-32 43,35 c 44,36 112,74 159,89 37,12 149,3 195,-16 z M 480,83 c 0,-19 -46,-53 -72,-53 -24,0 -28,4 -28,30 0,29 1,30 50,30 28,0 50,-3 50,-7 z" />
    <path d="m 540,284 c -11,-12 -10,-18 3,-32 16,-15 18,-15 34,0 13,14 14,20 3,32 -7,9 -16,16 -20,16 -4,0 -13,-7 -20,-16 z" />
  </g>
</svg>
