<?xml version="1.0" encoding="UTF-8" standalone="no"?>
<svg version="1.1" xmlns="http://www.w3.org/2000/svg" xmlns:xlink="http://www.w3.org/1999/xlink" viewBox="0 0 32 32" width="32" height="32">
<g id="bul_watch" transform="scale(1.0664541,1.0664534)">
	<path fill="#7A828D" clip-rule="evenodd" fill-rule="evenodd" d="M 15.004,0 C 6.73099,0 0,6.73 0,15.00301 0,23.276 6.73001,30.006 15.004,30.006 c 8.272,0 15.00198,-6.73 15.00198,-15.00299 C 30.00598,6.73 23.27701,0 15.004,0 z m 0,28.006 C 7.83399,28.006 2,22.17301 2,15.00301 2,7.833 7.83398,2 15.004,2 c 7.16901,0 13.00198,5.83299 13.00198,13.00301 0,7.17 -5.83298,13.00299 -13.00198,13.00299 z" />
    <path fill="#7A828D" clip-rule="evenodd" fill-rule="evenodd" d="m 20.004,14.00301 -4,0 0,-7 c 0,-0.552 -0.44699,-1 -1,-1 -0.55301,0 -1,0.448 -1,1 l 0,8 c 0,0.55199 0.44699,1 1,1 l 5,0 c 0.55301,0 1,-0.44801 1,-1 0,-0.552 -0.44699,-1 -1,-1 z" />
</g>
</svg>
