<?xml version="1.0" encoding="UTF-8" standalone="no"?>
<svg version="1.1" xmlns="http://www.w3.org/2000/svg" xmlns:xlink="http://www.w3.org/1999/xlink" viewBox="0 0 60 100" width="60" height="100">
  <path fill="#CBCBCB" clip-rule="evenodd" fill-rule="evenodd" d="M 16.349786,6.2507817e-4 C 12.289516,0.02122436 8.3239062,0.54066186 6.1303322,1.2116593 -1.1399058,3.4355273 0.13771823,17.369911 0.13533323,23.507109 c -0.0019,4.833106 -0.811792,10.492946 1.55310797,14.905035 1.944939,3.628582 6.21492,5.836117 7.206424,9.936691 1.2250918,5.066818 -0.366832,10.824732 -0.71443,15.898705 -0.494211,7.214336 -0.179763,14.630584 -0.09319,21.860719 0.07206,6.027398 1.464096,15.692021 9.9088318,13.600846 3.613947,-0.895098 4.884067,-4.319679 5.529067,-7.638832 1.472993,-7.580006 0.503108,-16.147519 0.465932,-23.848057 C 23.960466,61.869094 21.65868,54.622762 23.18346,48.348835 24.354781,43.529441 29.761438,41.277488 31.290691,36.424806 33.545456,29.270389 31.834602,19.873956 31.104318,12.57675 30.800157,9.5376818 31.298444,5.6733426 29.116339,3.1989973 26.98766,0.78527586 21.570133,-0.02585971 16.349786,6.2507817e-4 z M 39.894912,0.6527204 l 0,38.7530936 c 0,8.823384 -0.280106,18.083187 -1.42886,26.829064 -1.08484,8.259576 -2.434976,20.705827 -0.124248,28.785351 1.219059,4.26191 5.265543,5.546241 8.666345,4.067832 -0.05202,-0.02089 -0.103534,-0.04039 -0.155311,-0.0621 C 55.050966,92.185344 55.115326,78.056264 53.344832,68.22222 52.685519,64.560049 50.880683,61.011061 50.642423,57.291856 50.144733,49.523749 56.95202,42.637921 58.998148,35.431138 61.544749,26.461585 59.091682,15.807297 53.282708,8.633125 51.365886,6.2658751 48.924687,4.4830198 46.697528,2.4537455 44.651887,1.4595767 42.389373,0.81979155 39.894912,0.6527204 z m -25.843727,3.9746762 3.975958,0 0,21.8607194 3.975958,0 0,-20.8670503 c 6.55387,2.1745155 5.638406,17.8018793 5.71544,23.8480573 0.103772,8.150968 -8.40105,10.602946 -9.536087,17.886043 -2.51529,16.139869 5.536671,32.850003 -1.1493,48.689783 l -1.987979,0 C 8.3134812,80.096959 16.422298,63.566877 13.895875,47.355166 12.701894,39.694077 3.9242722,37.245775 4.3287262,28.475454 4.6109192,22.355943 3.2592432,7.8807585 10.075228,5.6210657 l 0,20.8670503 3.975957,0 z M 43.87087,7.6084038 c 2.664289,1.2456436 4.669912,2.6555302 6.554118,4.9993982 6.254778,7.780627 5.960508,18.126162 2.081166,26.798012 -2.713194,6.064958 -7.202846,11.914589 -6.460932,18.879712 0.97739,9.176136 3.937491,16.383019 2.85772,25.835396 -0.539935,4.726286 -1.080964,9.28206 -6.026061,10.930359 C 42.145006,78.010254 44.289886,61.422738 44.833797,44.374159 45.219068,32.298695 43.87087,19.787507 43.87087,7.6084038 z" />
</svg>
