<?xml version="1.0" encoding="UTF-8" standalone="no"?>
<svg version="1.1" xmlns="http://www.w3.org/2000/svg" xmlns:xlink="http://www.w3.org/1999/xlink" viewBox="0 0 26 20" width="26" height="20">
<g id="bul_check" transform="translate(-9.9636491,-1047.1681)">
    <path fill="#FFFFFF" clip-rule="evenodd" fill-rule="evenodd" d="m 32.887581,1047.1681 c 0.251903,0 0.505806,0.096 0.697732,0.287 l 2.088197,2.0822 c 0.386851,0.3831 0.386851,1.0051 0,1.3882 l -15.884891,15.9666 c -0.190926,0.189 -0.438831,0.276 -0.688735,0.276 -0.02499,0 -0.05198,0 -0.07797,0 -0.02499,0 -0.05098,0 -0.07597,0 -0.249904,0 -0.499807,-0.087 -0.690734,-0.276 l -8.002922,-8.1118 c -0.3848519,-0.3841 -0.3848519,-1.0051 0,-1.3892 l 2.092195,-2.0822 c 0.191926,-0.191 0.44383,-0.288 0.695733,-0.288 0.251903,0 0.503806,0.097 0.696732,0.288 l 5.284967,5.2655 13.168935,-13.1183 c 0.192926,-0.193 0.444829,-0.288 0.696732,-0.288" />
</g>
</svg>
