<?xml version="1.0" encoding="UTF-8" standalone="no"?>
<svg version="1.1" xmlns="http://www.w3.org/2000/svg" xmlns:xlink="http://www.w3.org/1999/xlink" viewBox="0 0 12 12" width="12" height="12">
<g id="btn_close" transform="translate(-8.9140025,-1072.3659)">
    <path fill="#7A828D" clip-rule="evenodd" fill-rule="evenodd" d="m 16.031149,1078.3655 4.651817,-4.6515 c 0.308049,-0.3081 0.308049,-0.8083 0,-1.1164 -0.308991,-0.3089 -0.808274,-0.3089 -1.117265,0 l -4.651816,4.6516 -4.651817,-4.6516 c -0.3080487,-0.3089 -0.8082739,-0.3089 -1.1163225,0 -0.3089907,0.3081 -0.3089907,0.8083 0,1.1164 l 4.6518165,4.6515 -4.6518165,4.6515 c -0.3089907,0.308 -0.3089907,0.8082 0,1.1172 0.1544953,0.1545 0.3560929,0.2317 0.5576904,0.2317 0.2025396,0 0.4041371,-0.077 0.5586321,-0.2317 l 4.651817,-4.6516 4.651816,4.6516 c 0.154495,0.1545 0.356093,0.2317 0.558633,0.2317 0.202539,0 0.404137,-0.077 0.558632,-0.2317 0.308049,-0.3081 0.308049,-0.8082 0,-1.1172 l -4.651817,-4.6515 z" />
</g>
</svg>
