<?xml version="1.0" encoding="UTF-8" standalone="no"?>
<svg version="1.1" xmlns="http://www.w3.org/2000/svg" xmlns:xlink="http://www.w3.org/1999/xlink" viewBox="0 0 36 32" width="36" height="32">
<g id="bul_comment" transform="matrix(1.3003901,0,0,-1.3045546,23.241872,26.589432)">
    <path fill="#7A828D" clip-rule="evenodd" fill-rule="evenodd" d="M 0,0 C 0.174,0 0.347,-0.045 0.5,-0.134 L 2.712,-1.411 2.703,0.604 c -10e-4,0.348 0.179,0.672 0.476,0.855 2.943,1.814 4.632,4.514 4.632,7.408 0,5.246 -5.601,9.515 -12.485,9.515 -6.594,0 -11.199,-3.929 -11.199,-9.556 0,-5.578 4.605,-9.475 11.199,-9.475 1.496,0 2.977,0.206 4.401,0.611 C -0.184,-0.013 -0.092,0 0,0 m 3.719,-4.147 c -0.173,0 -0.346,0.044 -0.5,0.133 l -3.359,1.94 c -1.473,-0.382 -2.997,-0.575 -4.534,-0.575 -7.771,0 -13.199,4.719 -13.199,11.475 0,6.696 5.551,11.556 13.199,11.556 8.122,0 14.485,-5.058 14.485,-11.515 0,-3.439 -1.853,-6.62 -5.106,-8.803 l 0.013,-3.007 c 0.014,-0.066 0.02,-0.135 0.02,-0.204 0,-0.553 -0.447,-1 -1,-1 -0.005,0 -0.012,-10e-4 -0.019,0" />
</g>
</svg>
