<?xml version="1.0" encoding="UTF-8" standalone="no"?>
<svg xmlns:svg="http://www.w3.org/2000/svg" xmlns="http://www.w3.org/2000/svg" width="9" height="9" viewBox="0 0 9 9" >
  <g style="fill:none;stroke:none" transform="matrix(1.02591,0,0,1.0693815,0.32899457,0.97735212)">
    <g transform="translate(-135,-71)">
      <g transform="translate(0,25)">
        <g transform="matrix(0.97211879,0,0,0.97579952,98.012108,45.970474)" >
          <g transform="matrix(0.99920827,0,0,1.0000231,37.999881,-7.866408e-5)">
            <path style=" fill:#ff9605;fill-opacity:1;stroke:none;" d="M 4.25,-0.90625 4,-0.0625 3.28125,2.5 0.59375,2.40625 -0.28125,2.375 0.4375,2.875 2.65625,4.375 1.75,6.875 1.4375,7.71875 2.125,7.15625 2.21875,7.0625 4.25,5.53125 6.25,7.0625 6.34375,7.15625 7.03125,7.71875 6.71875,6.875 5.8125,4.375 8.03125,2.875 8.75,2.375 7.875,2.40625 5.21875,2.5 l -0.75,-2.5625 z m 0,1.8125 0.53125,1.9375 L 4.828083,3.0052465 5.03125,3 7.0625,2.9375 5.375,4.0625 5.21875,4.168783 5.28125,4.34375 5.9375,6.21875 4.40625,5 4.25,4.875 4.09375,5 2.5,6.25 3.1875,4.34375 3.2539168,4.1650396 3.09375,4.0625 1.40625,2.9375 3.4375,3 3.6328336,3.0052465 3.6875,2.84375 z" />
          </g>
        </g>
      </g>
    </g>
  </g>
</svg>
