<?xml version="1.0" encoding="UTF-8" standalone="no"?>
<svg version="1.1" xmlns="http://www.w3.org/2000/svg" xmlns:xlink="http://www.w3.org/1999/xlink" viewBox="0 0 28 37" width="28" height="37">
<g id="bul_lock" transform="matrix(1.25,0,0,-1.25,0,37.000251)">
    <path fill="#ffffff" clip-rule="evenodd" fill-rule="evenodd" d="m 20.533566,12.025157 0,-0.925378 0,-1.8497646 0,-0.9253781 c 0,-3.5695991 -2.931251,-6.4746715 -6.533016,-6.4746715 l -5.6003001,0 c -3.6017655,0 -6.5340169,2.9050724 -6.5340169,6.4746715 l 0,0.9253781 0,1.8497646 0,0.925378 0,2.775143 c 0,0.510792 0.4183212,0.925378 0.933717,0.925378 l 1.866433,0 13.067033,0 1.866433,0 c 0.514395,0 0.933717,-0.414586 0.933717,-0.925378 l 0,-2.775143 z m -5.6003,9.249814 0,-0.003 0,-3.696554 -7.466733,0 0,3.697545 0,0.002 c 0,2.043171 1.672284,3.700521 3.733867,3.700521 2.061583,0 3.732866,-1.65735 3.732866,-3.700521 m -10.266883,0 c 0,3.576542 2.9252461,6.475663 6.534017,6.475663 3.60777,0 6.533016,-2.899121 6.533016,-6.475663 l 0,-3.699529 -1.866433,0 0,3.697545 c 0,2.554957 -2.088604,4.625899 -4.666583,4.625899 -2.5779795,0 -4.6665831,-2.070942 -4.6665831,-4.625899 l 0,-3.697545 -1.8674339,0 0,3.699529 z m 14.933466,-3.699529 0,3.699529 c 0,4.598128 -3.759887,8.325428 -8.399449,8.325428 -4.6395624,0 -8.40045,-3.7273 -8.40045,-8.325428 l 0,-3.699529 c -1.5461872,0 -2.8001500312,-1.242764 -2.8001500312,-2.775142 l 0,-2.775143 0,-0.925378 0,-1.8497646 0,-0.9253781 c 0,-4.5981276 3.7608876312,-8.3244359192 8.4004499312,-8.3244359192 l 5.6003001,0 c 4.639562,0 8.399449,3.7263083192 8.399449,8.3244359192 l 0,0.9253781 0,1.8497646 0,0.925378 0,2.775143 c 0,1.53337 -1.253963,2.775142 -2.80015,2.775142" />
    <path fill="#ffffff" clip-rule="evenodd" fill-rule="evenodd" d="m 11.2001,12.025157 c -1.030791,0 -1.8664331,-0.828179 -1.8664331,-1.849764 0,-0.5613767 0.3102382,-1.6285866 0.622478,-2.4716428 C 10.209339,7.0174033 10.528584,6.4768555 11.2001,6.4768555 c 0.72956,0 0.990761,0.5345968 1.244956,1.2169764 0.315242,0.8460317 0.621477,1.9182008 0.621477,2.4815611 0,1.021585 -0.835642,1.849764 -1.866433,1.849764" />
</g>
</svg>
