<?xml version="1.0" encoding="UTF-8" standalone="no"?>
<svg version="1.1" xmlns="http://www.w3.org/2000/svg" xmlns:xlink="http://www.w3.org/1999/xlink" viewBox="0 0 26 20" width="26" height="20">
<g id="bul_list" transform="translate(0.22802,-1057.2934)">
    <path fill="#7A828D" clip-rule="evenodd" fill-rule="evenodd" d="m 24.77198,1057.2934 h -24 c -0.552,0 -1,0.448 -1,1 v 2 c 0,0.553 0.448,1 1,1 h 24 c 0.553,0 1,-0.447 1,-1 v -2 c 0,-0.551 -0.448,-1 -1,-1 z m 0,8 h -24 c -0.552,0 -1,0.448 -1,1 v 2 c 0,0.553 0.448,1 1,1 h 24 c 0.553,0 1,-0.447 1,-1 v -2 c 0,-0.551 -0.448,-1 -1,-1 z m 0,8 h -24 c -0.552,0 -1,0.448 -1,1 v 2 c 0,0.553 0.448,1 1,1 h 24 c 0.553,0 1,-0.447 1,-1 v -2 c 0,-0.551 -0.448,-1 -1,-1 z" />
</g>
</svg>
