<?xml version="1.0" encoding="UTF-8" standalone="no"?>
<svg version="1.1" xmlns="http://www.w3.org/2000/svg" xmlns:xlink="http://www.w3.org/1999/xlink" viewBox="0 0 23 23" width="23" height="23">
<g id="bul_write" transform="translate(-7.589233,-1047.4254)">
    <path fill="#7A828D" clip-rule="evenodd" fill-rule="evenodd" d="m 29.697793,1051.1851 -2.868022,-2.8682 c -0.575025,-0.5751 -1.339696,-0.8915 -2.152032,-0.8915 -0.81335,0 -1.578021,0.3174 -2.152031,0.8925 L 11.052604,1059.79 c -0.193703,0.1947 -0.34684,0.426 -0.44927,0.6816 l -2.8690368,7.1717 c -0.3012032,0.7536 -0.1247407,1.6137 0.4492695,2.1877 0.3874062,0.3875 0.9066521,0.5944 1.4350255,0.5944 0.253538,0 0.5080908,-0.048 0.7525008,-0.145 l 7.172085,-2.8694 c 0.254552,-0.1024 0.486793,-0.2545 0.680496,-0.4492 l 11.474119,-11.4742 c 0.572996,-0.572 0.890426,-1.3358 0.89144,-2.1492 0,-0.8134 -0.316415,-1.5781 -0.89144,-2.1533 z m -20.080215,17.2118 2.687504,-6.7194 c 1.874153,1.0559 3.024202,2.1796 4.083991,4.0104 l -6.771495,2.709 z m 18.646204,-14.3434 -11.046147,11.0481 c -1.126723,-1.9169 -2.379201,-3.1472 -4.341586,-4.2659 l 11.085699,-11.0837 c 0.19776,-0.1977 0.457383,-0.2971 0.715991,-0.2971 0.259623,0 0.519246,0.099 0.71802,0.2971 l 2.868023,2.8684 c 0.395519,0.3945 0.396533,1.0375 0,1.4331 z" />
</g>
</svg>
