<?xml version="1.0" encoding="UTF-8" standalone="no"?>
<svg version="1.1" xmlns="http://www.w3.org/2000/svg" xmlns:xlink="http://www.w3.org/1999/xlink" viewBox="0 0 68 60" width="68" height="60">
<g id="bul_naver" transform="matrix(1.2531559,0,0,-1.2503908,0.00125316,-2.4995636e-8)">
    <path fill="#ffffff" clip-rule="evenodd" fill-rule="evenodd" d="m 0,0 18.877,0 c 0,0 17.146,-25.906 17.656,-26.603 0.512,-0.694 0.574,0 0.574,0 -0.789,4.012 -1.649,5.812 -1.649,12.219 l 0,14.384 18.804,0 0,-47.985 -18.804,0 c 0,0 -16.793,24.522 -17.301,25.201 -0.506,0.678 -0.575,0 -0.575,0 0.647,-3.312 1.222,-3.863 1.222,-9.611 l 0,-15.59 -18.805,0 L -0.001,0 0,0 z" />
</g>
</svg>
