<?xml version="1.0" encoding="UTF-8" standalone="no"?>
<svg version="1.1" xmlns="http://www.w3.org/2000/svg" xmlns:xlink="http://www.w3.org/1999/xlink" viewBox="0 0 32 60" width="32" height="60">
<g id="bul_kakao-story" transform="translate(-388.02027,-497.55257)">
    <path fill="#ffffff"  fill-rule="evenodd" clip-rule="evenodd" d="m 416.89084,497.55257 -25.74046,0 c -1.72816,0 -3.13011,1.38916 -3.13011,3.10455 l 0,25.46346 c 0,1.71405 1.40195,3.10321 3.13011,3.10321 l 11.86797,0 c -0.0823,3.02833 -1.35342,6.32408 -3.18941,9.24947 -2.06517,3.29039 -6.47051,6.9351 -6.50959,6.96719 -0.34645,0.33024 -0.59988,0.7153 -0.60662,1.24743 -0.004,0.40511 0.20625,0.71798 0.44215,1.04955 l 8.27551,9.25617 c 0,0 0.40171,0.41982 0.73467,0.50003 0.37475,0.0882 0.79802,0.10019 1.09323,-0.12567 14.33082,-10.99161 16.4014,-24.77623 16.75996,-32.23678 10e-4,-0.0427 0.002,-24.47406 0.002,-24.47406 0,-1.71539 -1.4006,-3.10455 -3.13011,-3.10455" />
  </g>
</svg>
