<?xml version="1.0" encoding="UTF-8" standalone="no"?>
<svg version="1.1" xmlns="http://www.w3.org/2000/svg" xmlns:xlink="http://www.w3.org/1999/xlink" viewBox="0 0 34 32" width="34" height="32">
<g id="bul_review" transform="translate(-1.60744e-5,-1020.3622)">
    <path fill="#7A828D" clip-rule="evenodd" fill-rule="evenodd" d="m 26.810455,1052.3622 c -0.164566,0 -0.329133,-0.035 -0.481301,-0.1061 l -9.328456,-4.3235 -9.3295825,4.3235 c -0.3697116,0.1713 -0.8081806,0.1326 -1.1418228,-0.104 -0.332515,-0.2365 -0.5083535,-0.6312 -0.4576309,-1.0313 l 1.2793375,-10.1116 -7.04931865,-7.4363 c -0.27953806,-0.2952 -0.37309314,-0.7142 -0.24572297,-1.0955 0.12737016,-0.3825 0.45537652,-0.6666 0.85664889,-0.7429 l 10.12085543,-1.9213 4.977581,-8.9187 c 0.396764,-0.7097 1.581419,-0.7097 1.977056,0 l 4.977581,8.9187 10.120856,1.9213 c 0.402399,0.076 0.730406,0.3604 0.857776,0.7429 0.12737,0.3813 0.03269,0.8014 -0.24685,1.0955 l -7.049319,7.4363 1.280465,10.1116 c 0.05072,0.4001 -0.125116,0.7948 -0.457631,1.0313 -0.195001,0.1393 -0.427198,0.2101 -0.660522,0.2101 z m -9.809757,-6.7565 c 0.164567,0 0.329134,0.035 0.481302,0.1061 l 7.958944,3.6878 -1.092227,-8.6292 c -0.04171,-0.3239 0.06538,-0.6489 0.291937,-0.8887 l 6.024721,-6.3542 -8.646518,-1.6416 c -0.329133,-0.063 -0.614307,-0.2664 -0.775492,-0.5549 l -4.242667,-7.6022 -4.243793,7.6022 c -0.161186,0.2885 -0.445232,0.4919 -0.775493,0.5549 l -8.646518,1.6416 6.0247216,6.3542 c 0.226561,0.2398 0.3336422,0.5648 0.2919369,0.8887 l -1.0911002,8.6292 7.9578177,-3.6878 c 0.153295,-0.071 0.317862,-0.1061 0.482428,-0.1061 z" />
</g>
</svg>
