<?xml version="1.0" encoding="UTF-8" standalone="no"?>
<svg version="1.1" xmlns="http://www.w3.org/2000/svg" xmlns:xlink="http://www.w3.org/1999/xlink" viewBox="0 0 31 31" width="31" height="31">
<g transform="matrix(1.25,0,0,-1.25,-5e-4,31.000375)">
    <path fill="#7A828D" clip-rule="evenodd" fill-rule="evenodd" d="M 2.6689519,6.3687894 C 4.4726592,7.3475831 6.2734448,7.8657107 7.7898446,7.7897446 7.8658106,6.2733448 7.347683,4.4725593 6.3688894,2.6688519 L 2.6689519,6.3687894 z M 13.8496,18.575953 c 2.924694,2.92372 6.556457,4.684575 9.273705,4.547252 C 23.260628,20.405957 21.499773,16.77322 18.576053,13.850474 15.652333,10.926754 12.019597,9.1649253 9.3023486,9.3032226 9.1650253,12.019497 10.926854,15.652233 13.8496,18.575953 M 9.4591504,7.6329428 c 3.1740186,-0.057462 7.0911406,1.8290294 10.2982726,5.0351872 3.57138,3.57138 5.51241,8.027082 4.945587,11.352059 l -0.09934,0.58338 -0.58338,0.09934 C 20.695312,25.269733 16.23961,23.328703 12.66823,19.757323 9.4620721,16.550191 7.5755813,12.633069 7.6330428,9.4590504 5.2975729,9.5009291 2.5608463,8.4890221 4.00003e-4,6.6746016 L 6.6747015,3.0003705e-4 C 8.489122,2.5607464 9.5010291,5.2974729 9.4591504,7.6329428" />
    <path fill="#7A828D" clip-rule="evenodd" fill-rule="evenodd" d="m 21.059268,19.877798 c -0.326265,-0.326265 -0.855105,-0.326265 -1.18137,0 -0.326264,0.326265 -0.326264,0.855105 0,1.18137 0.326265,0.326264 0.855105,0.326264 1.18137,0 0.326265,-0.326265 0.326265,-0.855105 0,-1.18137" />
</g>
</svg>
