<?xml version="1.0" encoding="UTF-8" standalone="no"?>
<svg version="1.1" xmlns="http://www.w3.org/2000/svg" xmlns:xlink="http://www.w3.org/1999/xlink" viewBox="0 0 28 32" width="28" height="32">
<g id="bul_profile" transform="translate(3.49515,-1052.6314)">
    <path fill="#c8c8c8" clip-rule="evenodd" fill-rule="evenodd" d="m 10.50685,1076.9443 c 6.618,0 12.002,-5.4528 12.002,-12.1565 0,-6.7036 -5.384,-12.1564 -12.002,-12.1564 -6.619,0 -12.004,5.4528 -12.004,12.1564 0,6.7037 5.385,12.1565 12.004,12.1565 z m 0,-2.0256 c -3.781,0 -7.078,-2.1359 -8.778,-5.2786 0.042,-0.01 0.084,-0.01 0.126,-0.022 0.258,-0.076 0.612,-0.2724 0.831,-0.7768 0.24,-0.556 0.438,-1.2791 0.573,-1.8514 1.18,1.0726 3.955,2.9786 9.049,3.3432 0.258,0.019 0.52,0.027 0.786,0.027 2.267,0 4.771,-0.6259 6.381,-1.1151 -1.633,3.3554 -5.034,5.6736 -8.968,5.6736 z m 0,-20.2618 c 5.515,0 10.002,4.5444 10.002,10.1309 0,1.1323 -0.192,2.218 -0.532,3.2349 -1.54,0.5094 -4.922,1.4908 -7.599,1.3014 -6.522,-0.4669 -8.989,-3.642 -9.014,-3.6734 -0.12,-0.159 -0.325,-0.2319 -0.515,-0.1863 -0.192,0.047 -0.34,0.2035 -0.376,0.401 -0.003,0.016 -0.294,1.6215 -0.704,2.5695 -0.076,0.1752 -0.157,0.1995 -0.192,0.2106 -0.089,0.025 -0.206,0.01 -0.326,-0.025 -0.479,-1.1829 -0.748,-2.4762 -0.748,-3.8324 0,-5.5865 4.487,-10.1309 10.004,-10.1309 z" />
    <path fill="#c8c8c8" clip-rule="evenodd" fill-rule="evenodd" d="m 21.08985,1073.6831 c -0.449,-0.3291 -1.073,-0.2268 -1.396,0.2269 -0.324,0.4527 -0.225,1.0857 0.223,1.4139 1.824,1.3378 2.587,2.0822 2.587,3.2307 0,2.9148 -3.364,4.0502 -12,4.0502 -8.636,0 -12,-1.1364 -12,-4.0512 0,-1.1475 0.763,-1.8919 2.587,-3.2308 0.447,-0.3281 0.547,-0.9611 0.223,-1.4138 -0.324,-0.4537 -0.948,-0.553 -1.396,-0.2259 -1.6,1.1739 -3.413,2.5057 -3.413,4.8715 0,5.6068 7.227,6.0768 14,6.0768 6.773,0 14,-0.469 14,-6.0757 -0.002,-2.369 -1.815,-3.6998 -3.415,-4.8726 z" />
</g>
</svg>
