<?xml version="1.0" encoding="UTF-8" standalone="no"?>
<svg version="1.1" xmlns="http://www.w3.org/2000/svg" xmlns:xlink="http://www.w3.org/1999/xlink" viewBox="0 0 31 25" width="31" height="25">
<g id="bul_pictures" transform="matrix(1.2500504,0,0,-1.2406948,15.741885,7.6923078)">
    <path fill="#ffffff" clip-rule="evenodd" fill-rule="evenodd" d="m 0,0 c 2.466,0 4.456,-2.206 4.456,-4.747 0,-2.54 -2.208,-4.528 -4.674,-4.528 -2.466,0 -4.65,2.067 -4.65,4.607 C -4.868,-2.128 -2.466,0 0,0 m 4.432,4.65 c 0,1.474 -0.8,1.55 -1.789,1.55 l -5.695,0 C -4.04,6.2 -4.84,6.124 -4.84,4.65 l -3.103,0 c -2.325,0 -4.65,-2.325 -4.65,-4.65 l 0,-9.3 c 0,-2.325 2.325,-4.65 4.65,-4.65 l 15.499,0 c 2.325,0 4.65,2.325 4.65,4.65 l 0,9.3 c 0,2.325 -2.325,4.65 -4.65,4.65 l -3.124,0 z M 6.006,0 c 0,0.856 0.694,1.55 1.55,1.55 0.856,0 1.55,-0.694 1.55,-1.55 0,-0.856 -0.694,-1.55 -1.55,-1.55 -0.856,0 -1.55,0.694 -1.55,1.55" />
</g>
</svg>
