<?xml version="1.0" encoding="UTF-8"?>
<svg width="18px" height="18px" viewBox="0 0 18 18" version="1.1" xmlns="http://www.w3.org/2000/svg" xmlns:xlink="http://www.w3.org/1999/xlink">
    <!-- Generator: Sketch 52.1 (67048) - http://www.bohemiancoding.com/sketch -->
    <title>icon_fav_off</title>
    <desc>Created with Sketch.</desc>
    <g id="Symbols" stroke="none" stroke-width="1" fill="none" fill-rule="evenodd">
        <g id="List-스페셜" transform="translate(-292.000000, -120.000000)" fill="#AAAAAA" fill-rule="nonzero">
            <g id="icon_fav_off">
                <path d="M297.11875,120 C294.302735,120 292,122.576549 292,125.750442 C292,132.259513 298.519726,135.668363 300.71875,137.729204 L301,138 L301.28125,137.729204 C303.480274,135.668363 310,132.259513 310,125.750442 C310,122.576549 307.697266,120 304.88125,120 C303.316797,120 301.938672,120.822345 301,122.070796 C300.061328,120.822345 298.683203,120 297.11875,120 Z M297.11875,121.019469 C298.588281,121.019469 299.866211,121.861726 300.620313,123.138053 L301,123.775221 L301.379687,123.138053 C302.133789,121.861726 303.411719,121.019469 304.88125,121.019469 C307.213867,121.019469 309.1,123.13208 309.1,125.750442 C309.1,131.305752 303.582226,134.419912 301,136.709735 C298.417774,134.419912 292.9,131.305752 292.9,125.750442 C292.9,123.13208 294.784375,121.019469 297.11875,121.019469 Z"></path>
            </g>
        </g>
    </g>
</svg>