<?xml version="1.0" encoding="UTF-8" standalone="no"?>
<svg version="1.1" xmlns="http://www.w3.org/2000/svg" xmlns:xlink="http://www.w3.org/1999/xlink" viewBox="0 0 36 27" width="36" height="27">
<g id="bul_email" transform="matrix(1.2863575,0,0,-1.2874924,5.0129386,24.425017)">
    <path fill="#7A828D" clip-rule="evenodd" fill-rule="evenodd" d="M 0,0 C -0.275,0 -0.535,0.062 -0.77,0.169 L 7.736,8.12 8.378,7.638 8.409,7.641 C 8.804,7.248 9.344,7.005 9.94,7.005 c 0.596,0 1.135,0.243 1.53,0.636 L 11.501,7.638 12.316,8.25 20.963,0.169 C 20.727,0.062 20.467,0 20.191,0 L 0,0 z m -1.881,1.757 c -0.005,0.056 -0.016,0.111 -0.016,0.169 l 0,13.12 c 0,0.098 0.014,0.192 0.028,0.287 L 6.178,9.289 -1.881,1.757 z m 22.072,15.214 c 0.158,0 0.308,-0.025 0.454,-0.062 L 9.94,8.818 -0.679,16.838 c 0.211,0.083 0.439,0.133 0.679,0.133 l 20.191,0 z m 1.898,-1.925 0,-13.12 c 0,-0.058 -0.012,-0.113 -0.017,-0.169 l -8.198,7.662 8.143,6.125 c 0.042,-0.16 0.072,-0.325 0.072,-0.498 m -1.898,3.925 -20.191,0 c -2.149,0 -3.897,-1.761 -3.897,-3.925 l 0,-13.12 C -3.897,-0.239 -2.149,-2 0,-2 l 20.191,0 c 2.15,0 3.898,1.761 3.898,3.926 l 0,13.12 c 0,2.164 -1.748,3.925 -3.898,3.925" />
</g>
</svg>
