<?xml version="1.0" encoding="utf-8"?>
<!-- Generator: Adobe Illustrator 21.1.0, SVG Export Plug-In . SVG Version: 6.00 Build 0)  -->
<svg version="1.1" id="Layer_1" xmlns="http://www.w3.org/2000/svg" xmlns:xlink="http://www.w3.org/1999/xlink" x="0px" y="0px"
	 viewBox="0 0 2083 304" style="enable-background:new 0 0 2083 304;" xml:space="preserve">
<style type="text/css">
	.st0{enable-background:new    ;}
	.st1{fill:#333333;}
</style>
<g class="st0">
	<path class="st1" d="M152.3,139.5c-14.5,14.3-33.6,21.4-57.2,21.4s-42.7-7.1-57.2-21.4C23,124.8,15.5,107.3,15.5,87.2
		S23,49.6,37.9,34.9c14.5-14.5,33.6-21.8,57.2-21.8s42.7,7.3,57.2,21.8c14.9,14.7,22.4,32.2,22.4,52.3S167.2,124.8,152.3,139.5z
		 M87.3,260.7h167v31.8h-81.2H137H81.8c-4.3,0-8-1.4-11-4.2l-15.9-15.9c-3.5-3.7-5.2-8-5.2-13v-67.6h37.7L87.3,260.7L87.3,260.7z
		 M65.2,57.1C56.9,65.2,52.8,75.2,52.8,87s4.1,21.8,12.3,29.9s18.2,12.2,29.9,12.2s21.7-4.1,29.9-12.2s12.3-18.1,12.3-29.9
		s-4.1-21.8-12.3-29.9S106.7,44.9,95,44.9C83.4,44.9,73.4,49,65.2,57.1z M213.7,221V3.4H251V221H213.7z"/>
	<path class="st1" d="M515.8,3.4h37.4v292.4h-37.4V143.1V135h-49.1c-1.7,27.3-8.6,48.8-20.5,64.7c-13.9,18-32.9,27-57.2,27
		c-24,0-43-9.2-56.9-27.6C318,180.3,311,154.5,311,121.8c0-33.1,6.9-59,20.8-77.7c14.1-18.4,33.1-27.6,57.2-27.6
		c24.5,0,43.5,9,57.2,27C457,58,463.6,77.2,466,101h49.7V3.4H515.8z M421,174.6c7.6-12.3,11.4-30.1,11.4-53.1
		c0-23.1-3.8-40.8-11.4-53.1c-7.4-12.1-18-18.2-31.8-18.2c-13.9,0-24.5,6.1-31.8,18.2c-7.6,12.3-11.4,30.1-11.4,53.1
		c0,23.1,3.8,40.8,11.4,53.1c7.4,12.1,18,18.2,31.8,18.2S413.6,186.7,421,174.6z"/>
	<path class="st1" d="M837.8,224.3h35.7v32.5H597.4v-32.5h63.4v-104h37.4v104h29.2v-104h37.4v104h35.7v-61.7V52.1H633.1V19.6H805
		c4.3,0,8,1.4,11,4.2L832.2,40c3.7,3.7,5.5,8.1,5.5,13.3L837.8,224.3L837.8,224.3z"/>
	<path class="st1" d="M896,165.8h276.2v32.5h-117.6V299h-37V198.3H896V165.8z M980.8,86.9c9.7-6.5,17.4-13.4,23.1-20.8
		c6.3-8.2,10.2-16.7,11.7-25.3h-45.8h-39.6V9.9h39.6H1138v30.9h-39.6h-42.6h-3.2c1.5,8.7,5.4,17.1,11.7,25.3
		c5.6,7.4,13.3,14.3,23.1,20.8c12.1,8,25.4,14.5,39.8,19.3c14.4,4.9,25.1,7.9,32,8.9l-21.1,27.3c-6.1-1.1-15-3.6-26.8-7.5
		s-23.8-9.1-35.9-15.6c-10.2-5.6-18.8-11.4-26-17.4c-7.1-6-12.2-11.6-15.3-17.1c-3,5.4-8.1,11.1-15.3,17.1c-7.1,6-15.8,11.8-26,17.4
		c-12.1,6.5-24.1,11.7-35.9,15.6c-11.8,3.9-20.7,6.4-26.8,7.5L909,115.1c6.9-1.1,17.6-4.1,32-8.9C955.4,101.3,968.6,94.9,980.8,86.9
		z"/>
	<path class="st1" d="M1201.4,91.1V59.9h149.5v31.2C1350.9,91.1,1201.4,91.1,1201.4,91.1z M1277.1,104.4c20.8,0,37.7,6.5,50.7,19.5
		c12.6,12.6,18.8,27.9,18.8,46.1c0,17.3-6.3,32.7-18.8,46.1c-13,14.1-30,21.1-51,21.1c-21.2,0-38.6-6.9-52-20.8
		c-12.8-13.2-19.2-28.7-19.2-46.5c0-18,6.4-33.4,19.2-46.1C1238,110.9,1255.4,104.4,1277.1,104.4z M1251.7,44h-8.1h-11.4V13.8h11.4
		h8.1h21.4c6.5,0,12.9-0.6,19.2-1.8c6.3-1.2,10.9-2.4,14-3.7l4.5-1.6l10.7,25.3c-12.1,8-28.5,12-49.1,12H1251.7z M1302.1,194.1
		c5.6-6.5,8.4-14.4,8.4-23.7c0-9.7-2.8-17.8-8.4-24c-6.3-6.9-14.6-10.4-25-10.4c-11.3,0-19.9,3.5-26,10.4c-5.6,6.5-8.4,14.5-8.4,24
		c0,9.3,2.8,17.2,8.4,23.7c6.1,7.1,14.7,10.7,26,10.7C1287.5,204.8,1295.8,201.2,1302.1,194.1z M1422.3,3.4h37.4v113.1v37.7v1.6v140
		h-37.4V96.3h-17.9v193H1367V6.6h37.4v55.2h17.9V3.4z"/>
	<path class="st1" d="M1577.1,121c-4.7,5.6-10.2,11.6-16.7,17.9c-6.9,6.5-14.2,12.2-21.8,17.1c-7.6,4.9-14.1,8.7-19.5,11.5
		l-25.3-25.3c9.1-4.5,18.3-10.1,27.6-16.6c10.8-7.6,19.6-15.4,26.3-23.4c9.7-11.5,15.8-21.2,18.2-29.2c2.4-8.9,3.8-18,4.2-27.3
		h-57.2V13.1h154v32.5h-59.8c0.4,8.7,1.9,17.2,4.5,25.7c2.6,8,8,16.7,16.2,26c6.9,7.8,15.7,15.2,26.3,22.1
		c13.2,8.7,21.8,13.8,25.7,15.3l-20.8,27.6c-1.5-0.6-3.3-1.5-5.4-2.6s-4.7-2.6-7.8-4.5c-3.1-2-5.7-3.6-7.6-4.9
		c-8.4-4.8-16.2-10.3-23.4-16.6c-5.2-4.3-9.9-8.8-14.1-13.5s-8.3-9.9-12.2-15.8C1585.6,109.8,1581.8,115.3,1577.1,121z
		 M1552.3,220.7v-32.2h196.6v113.7h-38v-81.5L1552.3,220.7L1552.3,220.7z M1711.8,3.4h37v165.7h-37V97.9h-53.9V63.5h53.9V3.4z"/>
	<path class="st1" d="M2033.1,61.8h40.6v34.4h-40.6v115h-37.4v-80.6c-0.6,1.1-1.7,2.4-3.2,4.1c-1.5,1.6-4.1,3.7-7.8,6.3
		c-3.7,2.6-7.9,4.9-12.5,7c-4.7,2.1-10.7,3.9-18.2,5.5s-15.5,2.4-24.2,2.4h-11h-42.2h-35.4c-4.3,0-8-1.4-11-4.2l-15.9-15.9
		c-3.5-3.7-5.2-8-5.2-13V16.4h144.6v32.5h-107.9v75.4h30.9h42.2h12c9.5,0,18.5-1.1,26.8-3.2c8.3-2.2,15.2-4.9,20.5-8.1
		s9.3-5.8,11.9-7.8c2.6-1.9,4.5-3.7,5.8-5.2V3.4h37.4v58.4H2033.1z M1873.6,188.5v72.1h165.1v31.8h-79.3H1923h-55.2
		c-4.1,0-7.7-1.4-10.7-4.2l-15.9-15.9c-3.5-3.7-5.2-8-5.2-13v-70.8L1873.6,188.5L1873.6,188.5z"/>
</g>
</svg>
